<?xml version="1.0" standalone="no"?>
<!DOCTYPE svg PUBLIC "-//W3C//DTD SVG 20010904//EN"
 "http://www.w3.org/TR/2001/REC-SVG-20010904/DTD/svg10.dtd">
<svg version="1.0" xmlns="http://www.w3.org/2000/svg"
 width="512.000000pt" height="512.000000pt" viewBox="0 0 512.000000 512.000000"
 preserveAspectRatio="xMidYMid meet">

<g transform="translate(0.000000,512.000000) scale(0.100000,-0.100000)"
fill="#000000" stroke="none">
<path d="M1431 4660 c-89 -19 -184 -98 -221 -185 -10 -23 -89 -258 -175 -521
-86 -264 -165 -504 -175 -534 -41 -122 -227 -691 -365 -1115 -158 -484 -355
-1085 -438 -1335 -59 -179 -65 -251 -29 -332 28 -65 94 -133 159 -164 129 -64
309 -15 388 105 20 30 163 448 321 944 l29 89 90 53 c49 29 263 153 475 275
212 122 468 270 570 330 102 59 293 169 425 245 418 240 478 277 526 322 108
101 125 274 40 396 -16 23 -335 346 -708 718 -624 623 -682 678 -728 693 -67
21 -131 27 -184 16z m528 -1214 l324 -324 -119 -69 c-66 -38 -209 -121 -319
-185 -110 -63 -291 -168 -403 -233 -111 -65 -206 -115 -209 -111 -4 4 41 152
99 329 59 177 150 456 204 620 53 163 98 297 98 297 1 0 147 -146 325 -324z"/>
<path d="M2895 4582 c-62 -21 -114 -60 -150 -112 -40 -57 -54 -106 -54 -185
-1 -133 -20 -110 647 -778 471 -472 594 -600 582 -607 -8 -5 -163 -96 -345
-201 -369 -213 -668 -386 -855 -494 -69 -40 -228 -132 -355 -205 -126 -73
-297 -172 -380 -220 -82 -48 -229 -132 -325 -188 l-175 -101 -57 -163 c-64
-184 -162 -497 -156 -503 2 -2 309 173 683 389 739 427 2051 1185 2395 1384
118 68 255 147 303 175 l89 50 -889 889 c-488 488 -892 888 -898 888 -5 -1
-33 -8 -60 -18z"/>
<path d="M3914 2117 c-534 -309 -1153 -667 -1375 -796 l-405 -233 -63 -205
c-34 -113 -60 -207 -58 -209 2 -2 95 49 208 114 112 65 807 467 1544 892 737
426 1342 775 1344 777 6 4 -211 223 -219 222 -3 0 -442 -253 -976 -562z"/>
</g>
</svg>
